HIERARCHY
ROOT Hips
{
    OFFSET 0.000000 0.000000 0.000000
    CHANNELS 6 Xposition Yposition Zposition Zrotation Yrotation Xrotation
    JOINT Chest
    {
        OFFSET 0.000000 1.634758 -0.000000
        CHANNELS 3 Zrotation Yrotation Xrotation
        JOINT Chest2
        {
            OFFSET 0.000000 2.197341 0.000000
            CHANNELS 3 Zrotation Yrotation Xrotation
            JOINT Neck
            {
                OFFSET 0.000000 0.961544 0.000000
                CHANNELS 3 Zrotation Yrotation Xrotation
                JOINT Head
                {
                    OFFSET 0.000000 0.632542 -0.032565
                    CHANNELS 3 Zrotation Yrotation Xrotation
                    End Site
                    {
                        OFFSET -0.000001 0.439502 2.922845
                    }
                }
            }
            JOINT LeftCollar
            {
                OFFSET 0.167536 0.778237 -0.168280
                CHANNELS 3 Zrotation Yrotation Xrotation
                JOINT LeftShoulder
                {
                    OFFSET 0.831514 -0.002900 0.006458
                    CHANNELS 3 Zrotation Yrotation Xrotation
                    JOINT LeftElbow
                    {
                        OFFSET 2.272872 -0.026639 0.059314
                        CHANNELS 3 Zrotation Yrotation Xrotation
                        JOINT LeftWrist
                        {
                            OFFSET 2.081982 -0.024402 0.054333
                            CHANNELS 3 Zrotation Yrotation Xrotation
                            JOINT LeftHandThumb1
                            {
                                OFFSET 0.218903 -0.128645 0.283837
                                CHANNELS 3 Zrotation Yrotation Xrotation
                                JOINT LeftHandThumb2
                                {
                                    OFFSET 0.137157 -0.025101 0.077902
                                    CHANNELS 3 Zrotation Yrotation Xrotation
                                    JOINT LeftHandThumb3
                                    {
                                        OFFSET 0.135460 -0.118485 -0.033926
                                        CHANNELS 3 Zrotation Yrotation Xrotation
                                        End Site
                                        {
                                            OFFSET 0.159508 -0.203028 -0.071927
                                        }
                                    }
                                }
                            }
                            JOINT LeftHandFore1
                            {
                                OFFSET 0.767340 -0.016076 0.196678
                                CHANNELS 3 Zrotation Yrotation Xrotation
                                JOINT LeftHandFore2
                                {
                                    OFFSET 0.208512 -0.021544 0.055261
                                    CHANNELS 3 Zrotation Yrotation Xrotation
                                    JOINT LeftHandFore3
                                    {
                                        OFFSET 0.126288 0.002645 0.028412
                                        CHANNELS 3 Zrotation Yrotation Xrotation
                                        End Site
                                        {
                                            OFFSET 0.188715 0.024530 0.033938
                                        }
                                    }
                                }
                            }
                            JOINT LeftHandMiddle1
                            {
                                OFFSET 0.709887 -0.008320 0.018526
                                CHANNELS 3 Zrotation Yrotation Xrotation
                                JOINT LeftHandMiddle2
                                {
                                    OFFSET 0.000320 -0.241354 0.042567
                                    CHANNELS 3 Zrotation Yrotation Xrotation
                                    JOINT LeftHandMiddle3
                                    {
                                        OFFSET -0.141341 -0.032830 0.018115
                                        CHANNELS 3 Zrotation Yrotation Xrotation
                                        End Site
                                        {
                                            OFFSET 0.000432 0.235529 -0.012495
                                        }
                                    }
                                }
                            }
                            JOINT LeftHandRing1
                            {
                                OFFSET 0.743817 -0.005823 -0.153668
                                CHANNELS 3 Zrotation Yrotation Xrotation
                                JOINT LeftHandRing2
                                {
                                    OFFSET -0.012160 -0.351343 0.033819
                                    CHANNELS 3 Zrotation Yrotation Xrotation
                                    JOINT LeftHandRing3
                                    {
                                        OFFSET -0.131637 -0.026068 0.024447
                                        CHANNELS 3 Zrotation Yrotation Xrotation
                                        End Site
                                        {
                                            OFFSET 0.004416 0.117107 -0.026194
                                        }
                                    }
                                }
                            }
                            JOINT LeftHandLittle1
                            {
                                OFFSET 0.689408 -0.053302 -0.308304
                                CHANNELS 3 Zrotation Yrotation Xrotation
                                JOINT LeftHandLittle2
                                {
                                    OFFSET -0.002359 -0.193827 0.021902
                                    CHANNELS 3 Zrotation Yrotation Xrotation
                                    JOINT LeftHandLittle3
                                    {
                                        OFFSET -0.118369 -0.021960 0.001641
                                        CHANNELS 3 Zrotation Yrotation Xrotation
                                        End Site
                                        {
                                            OFFSET -0.074534 0.172731 -0.029953
                                        }
                                    }
                                }
                            }
                        }
                    }
                }
            }
            JOINT RightCollar
            {
                OFFSET -0.167536 0.778237 -0.168280
                CHANNELS 3 Zrotation Yrotation Xrotation
                JOINT RightShoulder
                {
                    OFFSET -0.831514 -0.002900 0.006457
                    CHANNELS 3 Zrotation Yrotation Xrotation
                    JOINT RightElbow
                    {
                        OFFSET -2.272872 -0.026639 0.059313
                        CHANNELS 3 Zrotation Yrotation Xrotation
                        JOINT RightWrist
                        {
                            OFFSET -2.081982 -0.024402 0.054331
                            CHANNELS 3 Zrotation Yrotation Xrotation
                            JOINT RightHandThumb1
                            {
                                OFFSET -0.218911 -0.128571 0.283837
                                CHANNELS 3 Zrotation Yrotation Xrotation
                                JOINT RightHandThumb2
                                {
                                    OFFSET -0.137157 -0.025101 0.077902
                                    CHANNELS 3 Zrotation Yrotation Xrotation
                                    JOINT RightHandThumb3
                                    {
                                        OFFSET -0.159007 -0.086373 0.028210
                                        CHANNELS 3 Zrotation Yrotation Xrotation
                                        End Site
                                        {
                                            OFFSET -0.232385 -0.133003 -0.011993
                                        }
                                    }
                                }
                            }
                            JOINT RightHandFore1
                            {
                                OFFSET -0.767344 -0.015991 0.196679
                                CHANNELS 3 Zrotation Yrotation Xrotation
                                JOINT RightHandFore2
                                {
                                    OFFSET 0.016047 -0.214664 0.025658
                                    CHANNELS 3 Zrotation Yrotation Xrotation
                                    JOINT RightHandFore3
                                    {
                                        OFFSET 0.129461 -0.001061 0.000861
                                        CHANNELS 3 Zrotation Yrotation Xrotation
                                        End Site
                                        {
                                            OFFSET 0.020036 0.191751 -0.014037
                                        }
                                    }
                                }
                            }
                            JOINT RightHandMiddle1
                            {
                                OFFSET -0.709887 -0.008302 0.018525
                                CHANNELS 3 Zrotation Yrotation Xrotation
                                JOINT RightHandMiddle2
                                {
                                    OFFSET -0.000296 -0.241349 0.042573
                                    CHANNELS 3 Zrotation Yrotation Xrotation
                                    JOINT RightHandMiddle3
                                    {
                                        OFFSET 0.141565 -0.033315 0.015296
                                        CHANNELS 3 Zrotation Yrotation Xrotation
                                        End Site
                                        {
                                            OFFSET 0.003882 0.225625 -0.068620
                                        }
                                    }
                                }
                            }
                            JOINT RightHandRing1
                            {
                                OFFSET -0.743819 -0.005785 -0.153669
                                CHANNELS 3 Zrotation Yrotation Xrotation
                                JOINT RightHandRing2
                                {
                                    OFFSET 0.012136 -0.351343 0.033823
                                    CHANNELS 3 Zrotation Yrotation Xrotation
                                    JOINT RightHandRing3
                                    {
                                        OFFSET 0.127170 -0.032148 -0.037406
                                        CHANNELS 3 Zrotation Yrotation Xrotation
                                        End Site
                                        {
                                            OFFSET -0.002306 0.120017 0.003280
                                        }
                                    }
                                }
                            }
                            JOINT RightHandLittle1
                            {
                                OFFSET -0.689403 -0.053298 -0.308303
                                CHANNELS 3 Zrotation Yrotation Xrotation
                                JOINT RightHandLittle2
                                {
                                    OFFSET 0.002353 -0.193830 0.021902
                                    CHANNELS 3 Zrotation Yrotation Xrotation
                                    JOINT RightHandLittle3
                                    {
                                        OFFSET 0.110182 -0.026819 -0.040449
                                        CHANNELS 3 Zrotation Yrotation Xrotation
                                        End Site
                                        {
                                            OFFSET 0.072871 0.171765 -0.038407
                                        }
                                    }
                                }
                            }
                        }
                    }
                }
            }
        }
    }
    JOINT LeftHip
    {
        OFFSET 0.685143 0.673822 -0.044491
        CHANNELS 3 Zrotation Yrotation Xrotation
        JOINT LeftKnee
        {
            OFFSET 0.085364 -3.750208 0.017676
            CHANNELS 3 Zrotation Yrotation Xrotation
            JOINT LeftAnkle
            {
                OFFSET 0.094583 -4.155206 0.019585
                CHANNELS 3 Zrotation Yrotation Xrotation
                JOINT LeftToe
                {
                    OFFSET -0.000000 -0.395925 0.621478
                    CHANNELS 3 Zrotation Yrotation Xrotation
                    End Site
                    {
                        OFFSET -0.000000 -0.077878 0.321152
                    }
                }
            }
        }
    }
    JOINT RightHip
    {
        OFFSET -0.685143 0.673822 -0.044492
        CHANNELS 3 Zrotation Yrotation Xrotation
        JOINT RightKnee
        {
            OFFSET -0.085364 -3.750208 0.017677
            CHANNELS 3 Zrotation Yrotation Xrotation
            JOINT RightAnkle
            {
                OFFSET -0.094583 -4.155206 0.019585
                CHANNELS 3 Zrotation Yrotation Xrotation
                JOINT RightToe
                {
                    OFFSET -0.000000 -0.395925 0.621478
                    CHANNELS 3 Zrotation Yrotation Xrotation
                    End Site
                    {
                        OFFSET -0.000000 -0.077878 0.321152
                    }
                }
            }
        }
    }
}
MOTION
Frames: 5
Frame Time: 0.033333
-0.357687 1.660664 -1.102038 171.017334 43.764389 173.760101 -6.692815 -9.399347 -0.919621 -0.092728 1.455105 -3.646447 -12.726171 11.254663 5.975808 -1.346029 24.526243 12.437204 -14.277964 -5.859846 0.345113 -61.107395 -4.586256 6.744887 0.053413 -22.424919 -0.276787 -72.764954 14.472374 -6.799119 0.000003 0.000000 0.000002 -0.000003 0.000002 0.000003 -0.000007 0.000005 -0.000005 0.000000 -0.000000 -0.000001 0.000007 -0.000001 0.000000 -0.000003 0.000001 -0.000001 0.000009 -0.000001 0.000002 0.000000 0.000001 -0.000000 -0.000002 0.000002 0.000000 0.000002 -0.000001 0.000000 0.000000 -0.000001 -0.000000 -0.000003 0.000003 0.000002 0.000009 -0.000001 0.000002 -0.000002 0.000000 -0.000002 -0.000002 -0.000000 0.000000 13.144709 1.582259 -0.342487 46.315022 -2.152759 60.409184 -1.262091 69.785706 -1.816871 -8.794017 -0.588873 -11.122472 0.000003 0.000002 -0.000003 -0.000004 0.000002 0.000000 -0.000001 -0.000003 -0.000003 -0.000004 0.000003 0.000000 0.000004 0.000002 -0.000001 -0.000000 0.000002 0.000002 -0.000000 -0.000000 -0.000001 0.000001 0.000002 0.000004 -0.000002 -0.000005 -0.000004 -0.000001 -0.000003 -0.000002 -0.000001 -0.000002 -0.000001 0.000002 0.000002 0.000002 -0.000000 0.000002 -0.000003 0.000003 -0.000005 0.000001 0.000000 0.000002 -0.000000 28.669785 -4.710564 -104.838867 2.539480 0.416963 161.352005 -4.652473 0.211163 -57.971756 0.000000 -0.000000 -0.000002 -93.221321 5.427407 -39.804237 -2.590897 -0.210192 170.727692 -74.883514 -13.444399 -152.003540 -0.000002 -0.000000 0.000009
-0.357687 1.660664 -1.102038 171.017319 43.764442 173.760101 -6.692972 -9.399198 -0.919805 -0.092888 1.455101 -3.646636 -12.725938 11.254936 5.975760 -1.346066 24.526785 12.437110 -14.277954 -5.859835 0.345113 -61.107182 -4.586577 6.744788 0.053409 -22.424072 -0.276778 -72.764954 14.472374 -6.799114 0.000000 0.000016 0.000000 0.000000 -0.000001 0.000000 -0.000005 0.000001 -0.000001 -0.000002 -0.000005 -0.000002 0.000000 0.000002 0.000000 0.000000 0.000003 -0.000001 -0.000017 -0.000006 0.000002 0.000003 0.000002 -0.000000 -0.000005 -0.000002 0.000000 -0.000003 -0.000012 0.000001 -0.000005 0.000000 0.000002 0.000003 -0.000000 0.000001 -0.000015 0.000008 -0.000000 -0.000002 -0.000001 -0.000003 0.000003 0.000003 0.000001 13.144755 1.582196 -0.342492 46.315331 -2.152949 60.409199 -1.262042 69.785339 -1.816844 -8.793326 -0.597784 -11.174348 0.000005 0.000010 -0.000013 -0.000003 -0.000003 0.000003 -0.000000 -0.000007 -0.000000 -0.000005 0.000009 0.000003 0.000002 0.000002 -0.000001 0.000001 -0.000000 0.000004 -0.000001 0.000007 0.000004 0.000001 -0.000007 -0.000002 0.000001 0.000003 -0.000000 0.000005 0.000007 0.000001 -0.000001 -0.000007 0.000000 0.000001 -0.000002 -0.000000 -0.000001 0.000010 0.000001 -0.000001 0.000003 -0.000000 0.000001 -0.000005 -0.000000 28.669607 -4.710702 -104.838692 2.539487 0.416963 161.352066 -4.651122 0.208953 -57.971954 0.000002 -0.000002 0.000000 -93.221405 5.427362 -39.804337 -2.590897 -0.210190 170.727692 -74.883789 -13.444359 -152.003403 0.000000 -0.000002 -0.000005
-0.357687 1.660667 -1.102037 171.017319 43.764442 173.760101 -6.693418 -9.399317 -0.920325 -0.093352 1.455142 -3.647237 -12.725234 11.255804 5.975618 -1.346181 24.528667 12.436773 -14.277924 -5.859798 0.345131 -61.106411 -4.586920 6.744422 0.053399 -22.422535 -0.276755 -72.764954 14.472374 -6.799115 0.000000 0.000012 0.000015 0.000002 -0.000002 0.000002 0.000000 -0.000005 -0.000002 -0.000005 -0.000004 0.000004 -0.000002 0.000002 0.000000 -0.000002 -0.000002 -0.000001 -0.000022 0.000003 0.000005 0.000003 0.000003 0.000000 -0.000003 -0.000000 0.000001 -0.000002 -0.000001 0.000002 0.000000 -0.000000 0.000000 0.000000 0.000001 -0.000000 -0.000019 0.000004 0.000006 -0.000002 0.000001 -0.000003 0.000005 0.000001 0.000001 13.144908 1.581982 -0.342510 46.316265 -2.153486 60.409283 -1.261975 69.784386 -1.816745 -8.791363 -0.624230 -11.325209 -0.000003 -0.000003 -0.000003 -0.000001 -0.000000 0.000003 -0.000004 -0.000005 -0.000004 -0.000004 0.000019 -0.000003 0.000001 -0.000003 0.000000 -0.000001 -0.000003 0.000001 -0.000002 0.000010 -0.000005 -0.000000 0.000002 0.000001 -0.000000 0.000003 -0.000001 -0.000001 0.000009 -0.000002 -0.000002 -0.000000 0.000000 0.000002 -0.000003 0.000002 -0.000009 0.000012 -0.000003 0.000000 -0.000000 0.000002 0.000004 0.000005 -0.000000 28.669050 -4.711159 -104.838272 2.539483 0.416956 161.352188 -4.647037 0.202416 -57.972500 0.000000 0.000003 0.000003 -93.221657 5.427135 -39.804371 -2.590895 -0.210190 170.727722 -74.884682 -13.444334 -152.003021 -0.000001 0.000002 0.000000
-0.357686 1.660671 -1.102036 171.017319 43.764442 173.760101 -6.694160 -9.399529 -0.921186 -0.094117 1.455231 -3.648238 -12.724072 11.257235 5.975389 -1.346374 24.531778 12.436227 -14.277827 -5.859767 0.345162 -61.105202 -4.587513 6.743815 0.053385 -22.419878 -0.276718 -72.764954 14.472372 -6.799114 0.000007 0.000014 0.000005 0.000003 -0.000001 0.000000 -0.000005 0.000001 -0.000003 0.000000 -0.000013 -0.000000 0.000002 0.000003 -0.000001 0.000000 -0.000001 0.000000 -0.000009 -0.000015 -0.000002 0.000007 -0.000000 0.000000 -0.000003 -0.000002 0.000000 -0.000002 -0.000013 -0.000001 -0.000003 -0.000001 -0.000002 0.000003 -0.000000 0.000002 0.000003 -0.000001 -0.000002 0.000000 0.000003 0.000000 0.000000 0.000004 -0.000003 13.145161 1.581605 -0.342545 46.317818 -2.154366 60.409389 -1.261801 69.782806 -1.816594 -8.788290 -0.667775 -11.567926 0.000003 0.000003 -0.000010 -0.000002 0.000002 0.000002 -0.000001 -0.000002 0.000001 -0.000008 0.000010 -0.000001 0.000001 -0.000000 0.000001 -0.000000 -0.000002 -0.000002 0.000000 0.000002 -0.000000 -0.000001 -0.000000 0.000002 0.000000 -0.000000 -0.000001 0.000000 0.000002 -0.000003 -0.000003 -0.000000 -0.000001 0.000001 -0.000002 -0.000004 0.000000 0.000007 -0.000002 0.000001 -0.000002 0.000003 -0.000001 -0.000000 -0.000002 28.668144 -4.711904 -104.837585 2.539483 0.416953 161.352386 -4.640343 0.191719 -57.973412 -0.000002 -0.000003 -0.000003 -93.221916 5.426776 -39.804424 -2.590897 -0.210192 170.727737 -74.886063 -13.444336 -152.002258 0.000001 -0.000000 -0.000007
-0.357686 1.660676 -1.102034 171.017319 43.764439 173.760101 -6.695196 -9.399806 -0.922385 -0.095193 1.455340 -3.649629 -12.722439 11.259213 5.975074 -1.346642 24.536085 12.435474 -14.277729 -5.859711 0.345205 -61.103481 -4.588366 6.742976 0.053369 -22.416143 -0.276666 -72.764954 14.472366 -6.799116 0.000034 0.000012 0.000009 0.000000 0.000001 -0.000002 -0.000003 -0.000000 -0.000003 0.000036 0.000001 -0.000007 -0.000005 -0.000000 0.000000 0.000000 0.000001 -0.000001 0.000003 -0.000008 -0.000001 0.000000 0.000002 0.000000 -0.000003 -0.000003 0.000000 0.000007 -0.000007 -0.000003 0.000000 0.000005 -0.000003 0.000003 -0.000000 0.000000 0.000007 0.000007 -0.000003 0.000005 0.000002 -0.000001 -0.000002 0.000002 -0.000002 13.145491 1.581101 -0.342594 46.320004 -2.155583 60.409561 -1.261621 69.780571 -1.816367 -8.784267 -0.727979 -11.895350 -0.000002 0.000002 -0.000014 -0.000002 0.000003 0.000000 -0.000000 -0.000000 0.000000 -0.000004 0.000012 -0.000003 0.000001 0.000007 0.000001 0.000002 -0.000002 0.000001 -0.000003 0.000009 -0.000002 -0.000001 -0.000000 0.000002 -0.000001 0.000003 -0.000002 0.000006 0.000003 0.000001 0.000000 -0.000000 0.000000 0.000000 0.000003 -0.000001 0.000002 0.000003 0.000001 0.000002 0.000005 -0.000002 0.000002 -0.000000 0.000002 28.666864 -4.712946 -104.836624 2.539485 0.416951 161.352676 -4.631140 0.177029 -57.974674 -0.000003 -0.000002 0.000002 -93.222504 5.426251 -39.804512 -2.590897 -0.210189 170.727768 -74.888130 -13.444292 -152.001373 -0.000001 -0.000002 0.000000
